<?xml version="1.0" encoding="iso-8859-1"?>
<!-- Generator: Adobe Illustrator 16.0.0, SVG Export Plug-In . SVG Version: 6.00 Build 0)  -->
<!DOCTYPE svg PUBLIC "-//W3C//DTD SVG 1.1//EN" "http://www.w3.org/Graphics/SVG/1.1/DTD/svg11.dtd">
<svg xmlns="http://www.w3.org/2000/svg" xmlns:xlink="http://www.w3.org/1999/xlink" version="1.1" id="Capa_1" x="0px" y="0px" width="512px" height="512px" viewBox="0 0 84.37 84.37" style="enable-background:new 0 0 84.37 84.37;" xml:space="preserve">
<g>
	<path d="M49.232,35.029h24.316v2.978H49.232V35.029z M67.931,24.355v9.087h3.987v-9.087H67.931z M50.859,24.355v9.087h3.987v-9.087   H50.859z M59.395,24.355v9.087h3.992v-9.087H59.395z M61.391,15.001l-13.155,7.898h26.312L61.391,15.001z M84.37,9.578v35.43   H71.911L57.9,59.018v-14.01H47.063v11.387c4.525,4.827,7.358,11.236,7.358,18.395H30.39l0.172-3.166l3.029-0.022l-0.049-8.012   L32.1,63.603c0.52-0.871,0.822-1.884,0.803-2.974c-0.004-1.355-0.497-2.578-1.291-3.552c1.055-0.297,2.086-0.666,3.039-1.173   c0.004,0,0.009-0.005,0.019-0.009c1.004-0.527,1.924-1.193,2.795-1.9c0.149-0.14,0.311-0.265,0.458-0.408   c0.853-0.765,1.647-1.608,2.322-2.541c0.925-1.287,1.678-2.694,2.191-4.231c0.1,0.016,0.178,0.077,0.269,0.077   c1.413,0,2.584-1.378,2.819-3.188l-2.633-3.862c-0.196,1.086-0.42,1.775-0.469,1.757c0.231-0.27-1.756-7.36-9.472-9.187   c-0.154-0.038-0.292-0.083-0.441-0.129c-1.142,2.724-3.277,4.753-6.625,4.121c-11.63-2.191-14.877,4.749-14.617,5.195   c-0.078,0.018-0.435-0.729-0.736-1.958c-0.984,0.589-1.682,1.866-1.682,3.408c0,2.126,1.287,3.844,2.868,3.844   c0.101,0,0.183-0.062,0.266-0.077c0.519,1.528,1.268,2.944,2.193,4.231c0.675,0.933,1.475,1.781,2.327,2.557   c0.145,0.133,0.301,0.249,0.457,0.377c0.868,0.728,1.793,1.397,2.8,1.92c0.009,0,0.009,0.005,0.014,0.005   c0.925,0.493,1.925,0.847,2.951,1.139c-0.825,1.006-1.333,2.278-1.324,3.682c0.009,1.076,0.315,2.082,0.843,2.944l-1.431,0.005   l0.054,8.021l3.029-0.023l0.216,3.121H0c0-7.151,2.833-13.57,7.362-18.395V40.824c0-12.214,8.893-22.13,19.85-22.13   c3.508,0,6.797,1.025,9.659,2.811V9.583L84.37,9.578L84.37,9.578z M82.034,11.914h-42.82v11.31   c4.763,4.041,7.85,10.411,7.85,17.596v0.985l0.588,0.867h12.585v10.707l10.707-10.707h11.091V11.914z M20.448,39.275   c-1.055,0-1.917,0.853-1.917,1.92c0,1.063,0.862,1.918,1.917,1.918c1.063,0,1.92-0.855,1.92-1.918   C22.375,40.131,21.511,39.275,20.448,39.275z M35.907,41.198c0-1.067-0.867-1.92-1.925-1.92c-1.058,0-1.917,0.853-1.917,1.92   c0,1.063,0.86,1.921,1.917,1.921C35.04,43.119,35.907,42.262,35.907,41.198z M32.01,51.806c-1.121,0.762-2.845,1.245-4.793,1.245   c-1.957,0-3.669-0.483-4.804-1.245c0.785,1.19,2.632,2.029,4.804,2.029C29.387,53.835,31.237,52.996,32.01,51.806z M28.705,68.548   h0.729c0.091-0.214,0.143-0.456,0.154-0.707l-0.82,0.014C28.772,68.092,28.745,68.334,28.705,68.548z M28.121,66.268   c-0.114-0.34-0.273-0.68-0.474-0.995c-0.077-0.014-0.154-0.014-0.241-0.014l0.007,1.026L28.121,66.268z M28.581,66.268h0.596   c-0.035-0.053-0.086-0.105-0.133-0.158c-0.049-0.059-0.089-0.125-0.149-0.182c-0.178-0.174-0.397-0.306-0.61-0.427   c0.118,0.239,0.213,0.483,0.288,0.743C28.572,66.254,28.581,66.263,28.581,66.268z M27.425,67.422l0.908-0.01   c-0.014-0.246-0.049-0.47-0.101-0.702h-0.808V67.422z M28.766,67.408h0.822c-0.014-0.247-0.067-0.488-0.163-0.703h-0.74   C28.728,66.942,28.752,67.166,28.766,67.408z M27.439,69.492l0.009,0.534c0.091-0.014,0.192-0.019,0.288-0.032   c0.091-0.154,0.183-0.333,0.252-0.502c0.066-0.159,0.131-0.33,0.173-0.492l-0.729,0.009L27.439,69.492z M28.458,69.492   c-0.044,0.083-0.051,0.158-0.096,0.242c0.131-0.073,0.252-0.155,0.366-0.246c0.064-0.048,0.136-0.101,0.183-0.153   c0.117-0.114,0.201-0.234,0.278-0.349L28.614,69C28.572,69.164,28.518,69.328,28.458,69.492z M27.435,68.558l0.827-0.01   c0.04-0.214,0.065-0.456,0.082-0.697l-0.916,0.004v0.703H27.435z M25.79,66.263c0.065-0.249,0.145-0.483,0.245-0.712   c-0.263,0.15-0.504,0.343-0.689,0.584c-0.046,0.046-0.098,0.105-0.138,0.16h0.57C25.79,66.276,25.786,66.268,25.79,66.263z    M25.699,66.729l-0.727,0.004c-0.085,0.232-0.143,0.475-0.154,0.712l0.815-0.019C25.638,67.185,25.659,66.965,25.699,66.729z    M25.823,69.014h-0.599c0.083,0.128,0.183,0.232,0.292,0.338c0.06,0.063,0.122,0.109,0.187,0.15   c0.131,0.118,0.265,0.205,0.428,0.282c-0.049-0.082-0.082-0.178-0.123-0.282C25.942,69.342,25.879,69.196,25.823,69.014z    M26.972,66.729h-0.827c-0.041,0.236-0.072,0.456-0.072,0.697l0.903-0.004L26.972,66.729z M21.532,64.383h1.215l8.867-0.068   l1.224-0.009l0.049,6.588l-2.277,0.027l-6.758,0.048l-2.287,0.014L21.532,64.383z M24.358,67.668c0,0.693,0.259,1.332,0.716,1.843   c0.049,0.048,0.083,0.109,0.138,0.155c0.54,0.534,1.254,0.826,2.01,0.821c0.765,0,1.48-0.301,2.011-0.854   c0.051-0.031,0.079-0.101,0.127-0.146c0.445-0.534,0.697-1.168,0.697-1.857c0-0.625-0.213-1.204-0.575-1.701   c-0.091-0.096-0.178-0.205-0.273-0.306c-0.542-0.543-1.259-0.835-2.024-0.83c-0.93,0-1.767,0.479-2.273,1.182   C24.566,66.449,24.348,67.024,24.358,67.668z M25.638,67.868l-0.82,0.014c0.035,0.224,0.073,0.479,0.163,0.685h0.739   C25.688,68.343,25.652,68.105,25.638,67.868z M26.287,69.014c0.054,0.159,0.115,0.328,0.192,0.483   c0.082,0.169,0.178,0.34,0.278,0.511c0.082,0.014,0.163,0.014,0.245,0.019l-0.004-0.534l-0.009-0.479H26.287L26.287,69.014z    M26.078,67.864c0.022,0.241,0.049,0.479,0.1,0.702l0.815-0.005l-0.017-0.697H26.078z M26.962,65.259   c-0.091,0.014-0.191,0.014-0.288,0.041c-0.187,0.297-0.334,0.639-0.43,0.997l0.727-0.021L26.962,65.259z" fill="#697293"/>
</g>
<g>
</g>
<g>
</g>
<g>
</g>
<g>
</g>
<g>
</g>
<g>
</g>
<g>
</g>
<g>
</g>
<g>
</g>
<g>
</g>
<g>
</g>
<g>
</g>
<g>
</g>
<g>
</g>
<g>
</g>
</svg>
